<svg width="50" height="51" viewBox="0 0 50 51" fill="none" xmlns="http://www.w3.org/2000/svg">
<g clip-path="url(#clip0_11_541)">
<path d="M50.0001 26.0856C50.0001 24.3522 49.8595 22.6094 49.5596 20.9041H25.5015V30.7236H39.2784C38.7067 33.8906 36.8698 36.6922 34.18 38.4725V44.844H42.3993C47.2259 40.4027 50.0001 33.8438 50.0001 26.0856Z" fill="#4285F4"/>
<path d="M25.5014 51.0001C32.3805 51.0001 38.1818 48.742 42.4086 44.8441L34.1893 38.4726C31.9025 40.028 28.9503 40.9088 25.5107 40.9088C18.8566 40.9088 13.2146 36.4206 11.1902 30.3865H2.7085V36.9547C7.03839 45.5656 15.8575 51.0001 25.5014 51.0001Z" fill="#34A853"/>
<path d="M11.1809 30.3863C10.1125 27.2193 10.1125 23.7899 11.1809 20.6229V14.0547H2.70858C-0.909043 21.2601 -0.909043 29.7492 2.70858 36.9546L11.1809 30.3863Z" fill="#FBBC04"/>
<path d="M25.5014 10.0913C29.1377 10.0351 32.6523 11.4031 35.2858 13.9142L42.5679 6.63385C37.9569 2.30499 31.8369 -0.0749492 25.5014 9.43092e-06C15.8575 9.43092e-06 7.03839 5.43451 2.7085 14.0548L11.1808 20.623C13.1958 14.5795 18.8472 10.0913 25.5014 10.0913Z" fill="#EA4335"/>
</g>
<defs>
<clipPath id="clip0_11_541">
<rect width="50" height="51" fill="white"/>
</clipPath>
</defs>
</svg>
