<svg width="80" height="64" viewBox="0 0 80 64" fill="none" xmlns="http://www.w3.org/2000/svg">
<g clip-path="url(#clip0_14_372)">
<path d="M24 6C24 2.6875 26.6875 0 30 0H50C53.3125 0 56 2.6875 56 6V64H46V54C46 50.6875 43.3125 48 40 48C36.6875 48 34 50.6875 34 54V64H24V6ZM6 12H20V64H6C2.6875 64 0 61.3125 0 58V40H10C11.1 40 12 39.1 12 38C12 36.9 11.1 36 10 36H0V28H10C11.1 28 12 27.1 12 26C12 24.9 11.1 24 10 24H0V18C0 14.6875 2.6875 12 6 12ZM74 12C77.3125 12 80 14.6875 80 18V24H70C68.9 24 68 24.9 68 26C68 27.1 68.9 28 70 28H80V36H70C68.9 36 68 36.9 68 38C68 39.1 68.9 40 70 40H80V58C80 61.3125 77.3125 64 74 64H60V12H74ZM39 8C37.9 8 37 8.9 37 10V13H34C32.9 13 32 13.9 32 15V17C32 18.1 32.9 19 34 19H37V22C37 23.1 37.9 24 39 24H41C42.1 24 43 23.1 43 22V19H46C47.1 19 48 18.1 48 17V15C48 13.9 47.1 13 46 13H43V10C43 8.9 42.1 8 41 8H39Z" fill="white"/>
</g>
<defs>
<clipPath id="clip0_14_372">
<rect width="80" height="64" fill="white"/>
</clipPath>
</defs>
</svg>
